<?xml version="1.0" standalone="no"?>
<!DOCTYPE svg PUBLIC "-//W3C//DTD SVG 20010904//EN"
 "http://www.w3.org/TR/2001/REC-SVG-20010904/DTD/svg10.dtd">
<svg version="1.0" xmlns="http://www.w3.org/2000/svg"
 width="600.000000pt" height="336.000000pt" viewBox="0 0 600.000000 336.000000"
 preserveAspectRatio="xMidYMid meet">

<g transform="translate(0.000000,336.000000) scale(0.100000,-0.100000)"
fill="#000000" stroke="none">
<path d="M3060 2455 c0 -8 4 -15 10 -15 5 0 7 7 4 15 -4 8 -8 15 -10 15 -2 0
-4 -7 -4 -15z"/>
<path d="M3081 2385 c0 -5 4 -17 9 -25 6 -10 10 -11 10 -2 0 6 5 11 11 10 6
-2 14 4 16 12 4 13 3 13 -6 0 -10 -13 -11 -13 -11 0 0 12 -2 13 -9 1 -7 -11
-9 -11 -14 0 -3 8 -6 10 -6 4z"/>
<path d="M3121 2342 c-1 -7 -5 -10 -11 -7 -5 3 -10 3 -10 0 0 -10 30 -65 36
-65 3 0 2 5 -1 10 -9 15 4 12 21 -5 14 -14 11 -19 -9 -16 -10 2 -5 -7 35 -66
16 -24 34 -43 39 -43 6 0 7 6 3 13 -6 9 -5 9 8 0 8 -7 19 -9 23 -5 5 4 5 1 1
-6 -4 -7 -12 -10 -17 -7 -5 4 -9 4 -9 1 0 -26 151 -132 171 -120 7 4 9 3 6 -3
-8 -12 68 -47 134 -62 55 -13 79 -14 79 -2 0 4 -12 7 -27 4 -26 -3 -27 -3 -5
6 17 8 22 18 21 43 l-2 33 -8 -35 c-6 -27 -7 -21 -4 28 3 53 1 61 -11 51 -11
-9 -16 -6 -24 16 -10 27 -30 26 -30 -1 0 -14 -2 -13 -16 0 -8 9 -24 16 -34 16
-20 0 -72 39 -52 40 6 0 12 6 12 13 0 9 -17 14 -56 15 -54 1 -84 14 -84 34 0
20 -29 36 -71 39 -44 3 -69 14 -69 30 0 11 22 7 33 -6 5 -6 7 -4 4 5 -3 10
-16 14 -43 13 -21 -1 -33 1 -27 5 6 4 7 15 2 27 -4 11 -8 14 -8 7z m57 -89
c-1 -5 3 -18 10 -30 7 -13 9 -23 5 -23 -13 0 -34 40 -28 50 7 12 16 13 13 3z
m369 -165 c-3 -7 -5 -2 -5 12 0 14 2 19 5 13 2 -7 2 -19 0 -25z m-152 -38 c-3
-5 -12 -10 -18 -10 -7 0 -6 4 3 10 19 12 23 12 15 0z"/>
<path d="M3558 2188 c-3 -16 0 -25 9 -25 15 0 17 16 4 35 -6 10 -10 7 -13 -10z"/>
<path d="M3700 2041 c0 -23 16 -36 25 -21 3 5 2 10 -4 10 -6 0 -8 7 -5 15 4 8
1 15 -5 15 -6 0 -11 -9 -11 -19z"/>
<path d="M3761 2037 c-13 -21 -12 -21 5 -5 10 10 16 20 13 22 -3 3 -11 -5 -18
-17z"/>
<path d="M2666 1908 c3 -4 9 -8 15 -8 5 0 9 4 9 8 0 5 -7 9 -15 9 -8 0 -12 -4
-9 -9z"/>
<path d="M2702 1900 c2 -9 -3 -14 -12 -12 -8 2 -11 0 -7 -5 5 -4 11 -7 14 -5
3 2 11 -7 17 -19 6 -12 15 -20 20 -18 5 2 13 -6 17 -19 5 -13 13 -21 18 -17 6
3 15 -3 21 -14 7 -13 16 -18 27 -14 11 4 14 3 9 -5 -11 -19 80 -55 105 -42 13
7 19 7 19 0 0 -5 -6 -10 -12 -11 -7 0 -4 -4 7 -9 11 -5 56 -8 100 -8 44 0 69
3 55 6 -23 4 -24 5 -5 13 19 7 19 8 -2 8 -12 1 -24 5 -27 10 -7 10 -56 9 -73
-2 -9 -6 -11 -3 -7 7 7 17 -29 30 -83 30 -40 0 -44 23 -5 28 27 3 27 4 -5 9
-18 3 -30 2 -27 -3 3 -4 1 -8 -4 -8 -13 0 -10 -32 3 -43 6 -5 4 -7 -5 -4 -8 2
-16 9 -16 15 -1 7 -2 16 -3 22 0 5 -8 6 -18 3 -12 -5 -14 -3 -8 7 5 9 4 11 -4
6 -6 -4 -24 6 -42 23 -17 17 -35 29 -40 25 -5 -3 -10 2 -10 10 -3 29 -4 34
-12 43 -5 4 -7 1 -5 -7z m268 -146 c0 -2 -16 -4 -36 -4 -19 0 -33 4 -30 8 5 8
66 4 66 -4z"/>
<path d="M3064 1782 c4 -7 2 -12 -5 -12 -10 0 -10 -3 -1 -12 14 -14 44 -20 36
-7 -3 5 -10 6 -16 3 -7 -5 -9 -1 -5 9 3 9 1 19 -5 23 -7 4 -8 3 -4 -4z"/>
<path d="M3383 1683 c9 -2 15 -9 12 -14 -4 -5 -2 -9 4 -9 5 0 12 4 15 9 6 9
-17 22 -37 20 -7 -1 -4 -3 6 -6z"/>
<path d="M3656 1678 c3 -5 10 -6 15 -3 13 9 11 12 -6 12 -8 0 -12 -4 -9 -9z"/>
<path d="M3320 1668 c0 -11 -5 -15 -15 -12 -10 4 -15 0 -15 -11 0 -10 5 -13
12 -9 8 5 9 2 5 -9 -4 -10 -1 -28 5 -42 11 -24 16 -25 94 -25 l82 0 -11 35
c-7 25 -13 32 -19 23 -6 -8 -8 -3 -6 16 2 19 -2 30 -12 33 -12 4 -12 3 -1 -5
9 -7 10 -15 3 -28 -5 -11 -7 -26 -5 -34 2 -8 -2 -6 -9 6 -7 12 -19 19 -27 16
-8 -3 -11 0 -7 7 5 7 -1 11 -13 11 -11 0 -25 8 -30 18 -6 9 -11 13 -11 7 0 -5
-5 -3 -10 5 -8 13 -10 13 -10 -2z"/>
<path d="M3632 1634 c-22 -76 -24 -74 93 -74 77 0 105 3 106 13 1 6 3 22 4 35
3 27 -12 39 -28 23 -9 -9 -7 -11 8 -6 16 6 17 5 5 -4 -19 -14 -43 -14 -35 -1
13 21 -70 41 -112 28 -16 -5 -23 -3 -25 10 -2 10 -9 -1 -16 -24z"/>
<path d="M3526 1617 c3 -10 9 -15 12 -12 3 3 0 11 -7 18 -10 9 -11 8 -5 -6z"/>
<path d="M3900 1608 c0 -9 -3 -23 -6 -32 -5 -14 4 -16 60 -16 40 0 66 4 66 11
0 6 -15 10 -32 9 -55 -3 -79 0 -74 8 2 4 1 14 -5 22 -7 13 -9 12 -9 -2z"/>
<path d="M3545 1589 c-4 -6 -5 -12 -2 -15 2 -3 7 2 10 11 7 17 1 20 -8 4z"/>
<path d="M4313 1480 c0 -25 2 -35 4 -22 2 12 2 32 0 45 -2 12 -4 2 -4 -23z"/>
<path d="M4119 1492 c7 -5 10 -15 7 -21 -4 -6 -3 -19 3 -28 7 -14 9 -11 8 16
-1 21 -8 36 -17 38 -12 4 -13 3 -1 -5z"/>
<path d="M4245 1435 c-3 -8 -7 -22 -10 -30 -2 -9 2 -15 10 -15 10 0 15 -9 14
-27 -1 -16 -3 -21 -6 -11 -7 26 -29 29 -50 6 -10 -12 -12 -18 -5 -14 7 4 12 2
12 -4 0 -7 -7 -9 -16 -6 -32 12 -54 -12 -54 -59 0 -25 -4 -45 -10 -45 -5 0
-10 -9 -10 -19 0 -27 -56 -176 -86 -230 -13 -24 -21 -48 -17 -54 3 -5 2 -7 -4
-4 -5 3 -18 -8 -28 -25 l-18 -32 44 -38 c72 -64 73 -64 107 -10 99 156 157
316 186 515 11 77 11 87 -2 85 -9 -2 -17 -9 -20 -17 -3 -9 0 -11 8 -6 8 5 11
3 8 -5 -8 -25 -28 -22 -28 4 0 13 -5 28 -10 31 -6 4 -8 11 -5 16 4 5 4 9 0 9
-3 0 -8 -7 -10 -15z m-12 -79 c4 -10 1 -13 -8 -9 -8 3 -12 9 -9 14 7 12 11 11
17 -5z m57 0 c0 -3 -4 -8 -10 -11 -5 -3 -10 -1 -10 4 0 6 5 11 10 11 6 0 10
-2 10 -4z m-106 -61 c-4 -8 -11 -12 -16 -9 -6 4 -5 10 3 15 19 12 19 11 13 -6z
m53 -4 c-1 -12 -6 -17 -16 -13 -10 4 -11 7 -3 10 7 2 10 8 6 13 -3 5 -1 9 5 9
5 0 9 -9 8 -19z"/>
<path d="M3738 1413 c7 -3 16 -2 19 1 4 3 -2 6 -13 5 -11 0 -14 -3 -6 -6z"/>
<path d="M3687 1353 c6 -79 11 -89 12 -23 0 30 -3 61 -8 68 -4 7 -6 -13 -4
-45z"/>
<path d="M3880 1355 c0 -8 4 -15 8 -15 5 0 9 7 9 15 0 8 -4 15 -9 15 -4 0 -8
-7 -8 -15z"/>
<path d="M3924 1363 c4 -7 2 -13 -4 -13 -12 0 -3 -43 10 -48 4 -2 3 -14 -4
-27 -12 -27 -48 -33 -141 -24 -55 5 -52 6 29 6 58 1 91 5 96 13 9 15 1 50 -11
50 -5 0 -7 -11 -3 -25 4 -15 2 -25 -4 -25 -6 0 -12 15 -15 33 l-3 32 -8 -32
-8 -31 -77 -4 c-62 -2 -79 0 -93 15 -17 16 -22 14 -19 -5 0 -5 -6 -8 -14 -8
-8 0 -14 3 -14 8 4 21 -3 24 -16 6 -19 -25 -19 -32 3 -38 9 -2 0 -3 -20 0 -38
4 -53 -11 -23 -22 8 -4 15 -12 15 -19 0 -8 -14 -11 -47 -8 -27 2 -68 0 -93 -6
-39 -8 -32 -9 53 -8 l98 2 -3 -70 -3 -69 -35 -7 c-19 -4 -55 -9 -79 -11 -42
-3 -45 -2 -56 32 -10 29 -13 31 -17 15 -3 -11 -3 -3 -1 17 5 37 -10 78 -27 78
-5 0 -6 -8 -3 -17 5 -14 2 -13 -16 4 -13 12 -20 26 -17 31 8 13 -27 10 -36 -3
-5 -6 -8 -6 -8 2 0 16 -97 28 -114 14 -7 -6 -21 -9 -30 -5 -9 3 -16 1 -16 -6
0 -8 24 -11 77 -9 l78 2 17 -47 c9 -26 19 -65 23 -87 6 -36 5 -39 -17 -39 -19
0 -20 -2 -8 -11 12 -9 12 -10 -3 -5 -10 3 -36 6 -57 6 -37 0 -38 1 -76 80 -35
75 -54 98 -54 66 0 -8 7 -16 15 -20 8 -3 15 -10 15 -16 0 -15 -49 22 -50 38 0
6 4 12 9 12 5 0 11 6 14 13 3 8 -8 17 -29 23 -33 11 -34 10 -19 -6 12 -14 13
-20 4 -26 -8 -5 -10 -3 -4 6 5 9 4 11 -4 6 -6 -4 -9 -12 -5 -17 3 -5 10 -6 16
-3 7 5 9 -2 4 -19 -3 -14 -2 -29 4 -32 5 -3 10 -14 10 -23 0 -19 -16 5 -45 67
-8 19 -18 31 -22 28 -3 -4 11 -41 32 -82 23 -44 42 -70 46 -63 4 6 7 1 7 -13
0 -13 3 -36 7 -50 5 -20 -3 -44 -34 -101 -27 -49 -41 -87 -41 -111 0 -33 3
-37 33 -42 19 -4 171 -8 338 -9 289 -2 307 -3 360 -24 128 -51 177 -116 186
-250 6 -85 14 -102 48 -102 40 0 48 22 43 128 -4 113 -24 158 -101 229 -101
93 -196 113 -537 113 -137 0 -251 4 -254 8 -3 5 6 27 19 49 30 49 -2 41 403
92 172 22 319 45 327 51 18 15 19 44 3 69 -8 13 -9 32 -2 62 8 39 12 44 39 47
41 5 57 20 53 51 -2 18 -8 25 -20 23 -10 -2 -18 2 -18 8 0 5 -7 10 -15 10 -13
0 -15 7 -10 33 5 26 2 37 -16 52 -12 11 -19 14 -15 8z m13 -45 c-3 -8 -6 -5
-6 6 -1 11 2 17 5 13 3 -3 4 -12 1 -19z m-114 -85 c-7 -2 -19 -2 -25 0 -7 3
-2 5 12 5 14 0 19 -2 13 -5z m-188 -34 c10 -30 2 -32 -12 -3 -6 13 -7 24 -3
24 5 0 12 -9 15 -21z m55 -6 c0 -5 -5 -15 -10 -23 -7 -12 -9 -10 -7 8 1 19 17
33 17 15z m149 -19 c8 -8 -20 -98 -32 -106 -7 -4 -33 -8 -59 -8 l-48 0 0 63 0
63 68 -4 c37 -2 69 -6 71 -8z m-499 -4 c0 -5 -2 -10 -4 -10 -3 0 -8 5 -11 10
-3 6 -1 10 4 10 6 0 11 -4 11 -10z"/>
<path d="M3345 1350 c-3 -5 -1 -10 4 -10 6 0 11 5 11 10 0 6 -2 10 -4 10 -3 0
-8 -4 -11 -10z"/>
<path d="M3050 1311 c0 -6 4 -13 10 -16 6 -3 7 1 4 9 -7 18 -14 21 -14 7z"/>
<path d="M3363 1291 c1 -14 9 -26 17 -28 12 -4 12 -3 2 5 -8 5 -13 12 -12 16
1 4 -1 12 -4 19 -3 6 -4 1 -3 -12z"/>
<path d="M2980 1281 c0 -6 4 -13 10 -16 6 -3 7 1 4 9 -7 18 -14 21 -14 7z"/>
<path d="M2676 1271 c-3 -5 2 -15 12 -22 15 -13 16 -12 4 3 -10 13 -10 17 0
21 9 4 9 6 1 6 -6 1 -14 -3 -17 -8z"/>
<path d="M3026 1268 c3 -5 10 -6 15 -3 13 9 11 12 -6 12 -8 0 -12 -4 -9 -9z"/>
<path d="M3065 1270 c-3 -5 -1 -10 4 -10 6 0 11 5 11 10 0 6 -2 10 -4 10 -3 0
-8 -4 -11 -10z"/>
<path d="M3448 1263 c28 -2 76 -2 105 0 28 2 5 3 -53 3 -58 0 -81 -1 -52 -3z"/>
<path d="M3418 1243 c7 -3 16 -2 19 1 4 3 -2 6 -13 5 -11 0 -14 -3 -6 -6z"/>
<path d="M3040 1236 c0 -2 7 -7 16 -10 8 -3 12 -2 9 4 -6 10 -25 14 -25 6z"/>
<path d="M3128 1233 c7 -3 16 -2 19 1 4 3 -2 6 -13 5 -11 0 -14 -3 -6 -6z"/>
<path d="M3460 1230 c-11 -7 -1 -10 35 -9 37 0 45 3 30 9 -27 12 -47 12 -65 0z"/>
<path d="M3088 1223 c7 -3 16 -2 19 1 4 3 -2 6 -13 5 -11 0 -14 -3 -6 -6z"/>
<path d="M3415 1220 c-3 -6 1 -7 9 -4 18 7 21 14 7 14 -6 0 -13 -4 -16 -10z"/>
<path d="M3278 1213 c7 -3 16 -2 19 1 4 3 -2 6 -13 5 -11 0 -14 -3 -6 -6z"/>
<path d="M3376 1203 c-6 -14 -5 -15 5 -6 7 7 10 15 7 18 -3 3 -9 -2 -12 -12z"/>
<path d="M2785 1187 c-3 -12 -2 -34 4 -47 9 -22 10 -19 10 23 1 51 -5 61 -14
24z"/>
<path d="M3028 1193 c7 -3 16 -2 19 1 4 3 -2 6 -13 5 -11 0 -14 -3 -6 -6z"/>
<path d="M2701 1164 c0 -11 3 -14 6 -6 3 7 2 16 -1 19 -3 4 -6 -2 -5 -13z"/>
<path d="M2544 1154 c9 -8 13 -21 9 -27 -3 -7 -3 -9 2 -5 4 4 14 1 22 -7 8 -8
26 -14 41 -14 l27 2 -28 4 c-15 3 -37 17 -49 34 -12 16 -26 29 -31 29 -4 0 -1
-7 7 -16z"/>
<path d="M2685 1130 c3 -5 8 -10 11 -10 2 0 4 5 4 10 0 6 -5 10 -11 10 -5 0
-7 -4 -4 -10z"/>
<path d="M2105 1110 c-3 -5 -1 -10 4 -10 6 0 11 5 11 10 0 6 -2 10 -4 10 -3 0
-8 -4 -11 -10z"/>
<path d="M2657 1113 c-12 -11 -8 -23 8 -23 8 0 15 -5 15 -12 0 -6 3 -9 6 -5 8
7 -5 47 -15 47 -4 0 -11 -3 -14 -7z"/>
<path d="M1820 1095 c0 -5 5 -17 10 -25 5 -8 10 -10 10 -5 0 6 -5 17 -10 25
-5 8 -10 11 -10 5z"/>
<path d="M2799 1045 c-1 -27 -4 -40 -6 -27 -2 12 -9 22 -14 22 -5 0 -9 8 -9
18 0 13 -2 14 -9 4 -4 -7 -7 -23 -6 -35 1 -12 0 -14 -2 -5 -4 14 -13 16 -56
11 -28 -4 -60 -14 -70 -24 -19 -17 -70 -18 -209 -5 -35 4 -36 3 -40 -33 -3
-20 -1 -39 4 -42 6 -3 -1 -9 -13 -12 -13 -4 -28 -2 -33 3 -14 14 -29 12 -20
-2 9 -15 -13 -2 -45 26 -19 16 -23 17 -18 5 3 -9 0 -22 -6 -28 -6 -6 -7 -14
-2 -18 4 -5 10 -2 12 5 3 6 9 12 14 12 6 0 5 -9 -1 -21 -11 -19 -10 -20 10 -9
11 6 47 10 80 8 32 -1 62 1 66 4 4 4 -4 17 -17 29 -22 19 -21 19 10 -2 28 -19
31 -23 17 -31 -15 -8 -15 -12 4 -35 28 -36 26 -53 -8 -53 -17 0 -32 8 -40 21
-19 29 -96 24 -100 -7 -2 -17 5 -23 42 -34 24 -7 50 -9 57 -5 7 5 10 4 6 -2
-3 -5 10 -18 29 -28 40 -22 51 -53 34 -96 -18 -43 -49 -60 -113 -60 -60 -1
-97 18 -116 59 -17 35 -14 42 18 42 20 0 32 -6 36 -19 3 -10 20 -25 37 -32 26
-10 35 -10 57 2 54 31 30 67 -48 72 -21 1 -37 5 -35 9 2 4 -5 9 -16 13 -47 15
-65 69 -39 117 9 17 8 24 -5 33 -14 11 -14 14 -1 25 22 18 8 31 -21 20 -14 -6
-67 -10 -118 -10 -89 0 -93 -1 -106 -25 -9 -18 -22 -25 -42 -25 -15 0 -28 -4
-28 -10 0 -5 -22 -10 -49 -10 -28 0 -53 -5 -57 -12 -4 -6 -3 -8 4 -4 6 3 14 1
18 -5 5 -8 3 -9 -6 -4 -10 6 -12 4 -7 -9 4 -9 3 -14 -2 -11 -21 13 -19 -16 4
-56 23 -40 88 -124 70 -90 -6 9 -4 12 4 7 6 -4 9 -12 5 -17 -7 -12 96 -122
196 -209 188 -164 511 -290 745 -290 80 0 265 26 278 39 4 4 -18 13 -51 20
-72 14 -155 54 -175 84 -30 48 -39 105 -63 432 -13 187 -26 345 -28 350 -3 6
-5 -12 -7 -40z m-334 -113 c1 -18 -1 -20 -13 -10 -10 9 -11 13 -2 16 9 3 9 7
-1 14 -12 8 -12 9 0 6 8 -2 15 -14 16 -26z"/>
<path d="M2650 1070 c0 -5 5 -10 10 -10 6 0 10 5 10 10 0 6 -4 10 -10 10 -5 0
-10 -4 -10 -10z"/>
<path d="M1697 1012 c3 -12 9 -25 14 -28 14 -8 11 10 -6 32 -13 18 -14 18 -8
-4z"/>
<path d="M1895 990 c-4 -6 -11 -8 -16 -5 -5 3 -6 -1 -3 -10 4 -9 7 -15 8 -13
1 2 8 11 15 21 7 9 11 17 8 17 -3 0 -9 -5 -12 -10z"/>
<path d="M2287 943 c3 -8 12 -12 20 -9 8 3 24 1 36 -4 20 -9 20 -9 -2 7 -29
21 -61 25 -54 6z"/>
<path d="M1739 931 c8 -5 10 -14 6 -22 -6 -11 -5 -11 5 -2 14 12 6 33 -13 33
-8 0 -7 -3 2 -9z"/>
<path d="M1771 849 c23 -46 31 -45 35 3 3 27 2 30 -7 15 -6 -9 -15 -15 -20
-12 -5 4 -7 10 -4 15 3 4 -2 10 -10 14 -12 4 -11 -4 6 -35z"/>
<path d="M3249 592 c-161 -84 -118 -323 63 -348 83 -12 164 33 199 111 32 70
19 143 -38 206 -58 65 -138 76 -224 31z m149 -104 c51 -49 14 -138 -58 -138
-62 0 -101 59 -75 115 28 57 85 67 133 23z"/>
<path d="M3698 504 c-57 -30 -51 -146 8 -173 34 -15 59 -14 94 4 37 19 50 43
50 90 0 75 -82 118 -152 79z"/>
</g>
</svg>
